<?xml version="1.0" encoding="utf-8"?>
<!-- Uploaded to: SVG Repo, www.svgrepo.com, Generator: SVG Repo Mixer Tools -->
<svg width="24px" height="24px" viewBox="0 0 24 24" id="meteor-icon-kit__solid-users" fill="none" xmlns="http://www.w3.org/2000/svg">
  <path fill-rule="evenodd" clip-rule="evenodd" d="M7.99978 0C11.3134 0 13.9996 2.68619 13.9996 5.9998C13.9996 9.3134 11.3134 12 7.99978 12C4.68616 12 1.99994 9.3134 1.99994 5.9998C1.99994 2.68619 4.68616 0 7.99978 0zM0.999972 22.0984C0.447703 22.0984 0 21.6507 0 21.0984V19C0 16.2381 2.23851 14 5 14H11C13.7615 14 16 16.2381 16 19V21.0984C16 21.6507 15.5523 22.0984 15 22.0984C14.4477 22.0984 1.55224 22.0984 0.999972 22.0984zM13.7484 11.563C15.142 10.1233 15.9996 8.16172 15.9996 6C15.9996 3.83789 15.142 1.87627 13.7484 0.43658C14.4436 0.15502 15.2034 0 15.9996 0C19.3132 0 21.9994 2.68619 21.9994 6C21.9994 9.3134 19.3132 12 15.9996 12C15.2034 12 14.4436 11.8446 13.7484 11.563zM15.8992 14H19C21.7615 14 24 16.2381 24 19V21.0984C24 21.6507 23.5523 22.0984 23 22.0984H17.8295C17.94 21.7856 18 21.449 18 21.0984V19C18 17.0408 17.1958 15.2701 15.8992 14z" fill="#000000"/>
</svg>
