<svg
  xmlns="http://www.w3.org/2000/svg"
  viewBox="0 0 30 30"
  fill="currentColor"
  width="30px"
  height="30px"
>
  <path
    fillRule="evenodd"
    clipRule="evenodd"
    d="M8 0C11.3137 0 14 2.68629 14 6C14 9.31371 11.3137 12 8 12C4.68629 12 2 9.31371 2 6C2 2.68629 4.68629 0 8 0ZM1 22.1C0.447715 22.1 0 21.6523 0 21.1V19C0 16.2386 2.23858 14 5 14H11C13.7614 14 16 16.2386 16 19V21.1C16 21.6523 15.5523 22.1 15 22.1C14.4477 22.1 1.55228 22.1 1 22.1ZM13.748 11.563C15.1421 10.1233 16 8.16195 16 6C16 3.83805 15.1421 1.87666 13.748 0.436959C14.4437 0.155196 15.2034 0 16 0C19.3137 0 22 2.68629 22 6C22 9.31371 19.3137 12 16 12C15.2034 12 14.4437 11.8448 13.748 11.563ZM15.8992 14H19C21.7614 14 24 16.2386 24 19V21.1C24 21.6523 23.5523 22.1 23 22.1H17.8295C17.94 21.7856 18 21.4493 18 21.1V19C18 17.0408 17.1958 15.2704 15.8992 14Z"
  />
</svg>
